<?xml version="1.0" encoding="UTF-8"?>
<svg id="_图层_2" data-name="图层 2" xmlns="http://www.w3.org/2000/svg" viewBox="0 0 35.29 44.35">
  <defs>
    <style>
      .cls-1 {
        fill: rgba(20, 69, 121, 0);
      }

      .cls-2 {
        fill: #144579;
      }

      .cls-2, .cls-3 {
        fill-rule: evenodd;
      }

      .cls-3 {
        fill: #ac2929;
      }
    </style>
  </defs>
  <g id="_图层_1-2" data-name="图层 1">
    <g>
      <rect class="cls-1" width="35.29" height="44.35"/>
      <g>
        <path class="cls-2" d="M17.65,0V6.57l-2.76,3.79-2.76,3.79h3.12l-1.32,1.81-3.7,5.1h3.54l-1.26,1.74-5.14,7.06h8.67v3.82C10.12,33.86,4.61,34.99,0,36.8V17.65C0,7.94,7.94,0,17.65,0Z"/>
        <path class="cls-3" d="M35.29,36.8V17.65C35.29,7.94,27.35,0,17.65,0V6.57l2.76,3.79,2.76,3.79h-3.12l1.32,1.81,3.71,5.1h-3.54l1.26,1.74,5.14,7.07h-8.67v3.82c5.93,.17,11.43,1.3,16.04,3.11Z"/>
        <path class="cls-2" d="M0,44.35H35.29v-5.11c-5.02-1.97-11.11-3.14-17.65-3.14-6.54,0-12.62,1.16-17.65,3.14v5.11Z"/>
      </g>
    </g>
  </g>
</svg>