<?xml version="1.0" encoding="utf-8"?>
<!-- Generator: Adobe Illustrator 27.0.0, SVG Export Plug-In . SVG Version: 6.00 Build 0)  -->
<svg version="1.1" id="图层_1" xmlns="http://www.w3.org/2000/svg" xmlns:xlink="http://www.w3.org/1999/xlink" x="0px" y="0px"
	 viewBox="0 0 200 200" style="enable-background:new 0 0 200 200;" xml:space="preserve">
<style type="text/css">
	.st0{fill:#144579;fill-opacity:0;}
	.st1{fill-rule:evenodd;clip-rule:evenodd;fill:#144579;}
	.st2{fill-rule:evenodd;clip-rule:evenodd;fill:#AC2929;}
	.st3{fill:#144579;}
	.st4{fill:#AC2929;}
</style>
<g transform="translate(47.470001220703125,0)">
	<g>
		<rect x="34.9" y="60.6" class="st0" width="35.3" height="44.3"/>
		<g>
			<g>
				<path class="st1" d="M52.5,60.6v6.6l-2.8,3.8L47,74.7h3.1l-1.3,1.8l-3.7,5.1h3.5l-1.3,1.7l-5.1,7.1h8.7v3.8
					c-5.9,0.2-11.4,1.3-16,3.1V78.2C34.9,68.5,42.8,60.6,52.5,60.6z"/>
				<path class="st2" d="M70.2,97.4V78.2c0-9.7-7.9-17.6-17.6-17.6v6.6l2.8,3.8l2.8,3.8h-3.1l1.3,1.8l3.7,5.1h-3.5l1.3,1.7l5.1,7.1
					h-8.7v3.8C60.1,94.5,65.6,95.6,70.2,97.4z"/>
				<path class="st1" d="M34.9,104.9h35.3v-5.1c-5-2-11.1-3.1-17.6-3.1c-6.5,0-12.6,1.2-17.6,3.1V104.9z"/>
			</g>
		</g>
	</g>
</g>
<g transform="translate(0,82.39393615722656)">
	<g transform="translate(0,0)">
		<g transform="scale(1)">
			<g>
				<path class="st3" d="M65.3,29.3L65.3,29.3l4,1.1c-0.1,0.3-0.4,0.5-0.9,0.5l0,0c-1.1,2.8-2.7,5-4.8,6.5l0,0
					c0.6,0.6,0.8,1.1,0.8,1.8c-0.1,0.6-0.4,1-0.9,1.1c-0.5,0.1-1.1,0-1.6-0.4l0,0c0-0.9-0.3-2-0.9-3.2l0,0v11.2
					c0,0.1-0.3,0.3-0.9,0.6s-1.1,0.3-1.7,0.3l0,0h-0.6V40c-0.9,1.2-1.9,2.3-3,3.3l0,0l-0.3-0.2c1.4-2.4,2.4-5.5,3-9.6l0,0h-2.8
					l-0.2-0.6h3.2v-5.9l4.1,0.4c0,0.4-0.3,0.6-0.8,0.7l0,0v4.8H61l1.3-2.1c0.9,1,1.7,1.7,2.2,2.3l0,0c0,0.2-0.2,0.4-0.6,0.4l0,0
					h-2.9v2.7c0.9,0.2,1.6,0.5,2.2,0.9l0,0C64.3,34.8,65,32.2,65.3,29.3z M70.4,40.6L70.4,40.6l0.2-0.1c2.7,1,4.4,2.4,5.2,4.2l0,0
					c0.5,1.1,0.6,2.1,0.1,3l0,0c-0.4,0.7-0.9,1-1.7,0.9l0,0c-0.5-0.1-0.9-0.3-1.3-0.7l0,0c-0.1-0.8-0.3-1.8-0.7-3l0,0
					c-2,0.9-4.6,1.9-7.7,3l0,0c-0.2,0.3-0.4,0.5-0.7,0.6l0,0L62,44.8c0.9,0,2.1-0.1,3.6-0.2l0,0c0.6-3.1,1.1-6.3,1.4-9.5l0,0
					l4.5,0.8c-0.1,0.3-0.4,0.5-0.9,0.6l0,0c-1.1,2.7-2.4,5.4-4.1,8l0,0c0.5,0,1.4-0.1,2.6-0.2c1.2-0.1,2.2-0.2,2.8-0.2l0,0
					C71.6,43,71.1,41.9,70.4,40.6z M70.2,28.2l0.9-1.5l2.5,1.6c-0.3,0.4-1,0.6-2.3,0.7l0,0c0.4,1.2,1.1,2.3,2.1,3.2
					c1,0.9,2.1,1.7,3.3,2.1l0,0l0,0.3c-0.7,0.3-1.3,0.8-1.8,1.4c-0.5,0.6-0.9,1.3-1.1,2l0,0c-1.6-1.9-2.6-5-2.9-9.3l0,0H67l-0.2-0.6
					H70.2z M91.8,36v5.6h0.7V36H91.8z M83.6,33.5l0,1.9c0.9,0.3,1.7,0.7,2.4,1.3l0,0v-3.1H83.6z M95.2,28.9l1.4-1.6l2.8,2.2
					c-0.2,0.2-0.5,0.4-0.9,0.5l0,0v15.2c0,1.1-0.2,2-0.7,2.5c-0.5,0.5-1.4,0.8-2.9,0.9l0,0c0-1-0.2-1.8-0.4-2.2l0,0
					c-0.3-0.5-0.8-0.8-1.6-1l0,0v-0.3c1.2,0.1,1.9,0.1,2.2,0.1l0,0c0.3,0,0.4-0.1,0.4-0.4l0,0v-9c-0.2,0.2-0.4,0.3-0.8,0.4l0,0v6.7
					c0,0.1-0.2,0.2-0.7,0.4c-0.4,0.2-0.8,0.2-1.1,0.2l0,0h-0.4v-1.3h-0.7v1.3c0,0.1-0.2,0.3-0.6,0.4s-0.8,0.2-1.2,0.2l0,0h-0.3v-9.7
					l2.2,0.9h0.5l1-1.1l2.1,1.6v-2.7c-0.1,0-0.2,0-0.3,0l0,0h-5.6l-0.2-0.6H92l1.4-1.9c0.8,0.7,1.5,1.3,2.1,1.9l0,0v-2.9H89v18.1
					c0,0.2-0.3,0.4-0.8,0.7c-0.5,0.3-1.1,0.4-1.7,0.4l0,0H86v-9c-0.6,0.2-1.2,0.1-1.8-0.5l0,0c0.1-1.1-0.1-2.2-0.6-3.3l0,0v11.9
					c0,0.1-0.1,0.2-0.4,0.3c-0.3,0.1-0.6,0.3-1,0.4c-0.4,0.1-0.8,0.2-1.2,0.2l0,0h-0.6v-8.6c-0.9,1.2-1.9,2.3-3,3.2l0,0l-0.3-0.2
					c1.5-2.3,2.5-5.5,3-9.7l0,0h-2.3l-0.2-0.6h2.7V27l4.1,0.4c0,0.4-0.3,0.6-0.8,0.7l0,0v4.5l1.1-1.7c0.4,0.4,0.9,0.8,1.3,1.3l0,0
					v-4.5l3.1,1.3H95.2z M108.3,27.3L108.3,27.3l4.4,0.4c0,0.4-0.3,0.6-0.8,0.7l0,0c0.1,2.4,0.4,4.4,0.8,6.1c0.4,1.7,1,3.2,1.7,4.6
					c0.8,1.4,1.8,2.6,3.1,3.5c1.3,0.9,2.9,1.7,4.8,2.4l0,0l0,0.3c-1.7,0.3-2.7,1.5-3.1,3.4l0,0c-1.3-0.7-2.5-1.6-3.4-2.6
					c-0.9-1-1.7-2.2-2.3-3.6c-0.6-1.4-1-2.8-1.3-4.3c-0.3-1.5-0.5-3.3-0.6-5.3l0,0c-0.1,1.3-0.2,2.5-0.4,3.6
					c-0.2,1.1-0.6,2.2-1.1,3.4c-0.5,1.2-1.1,2.3-1.9,3.3c-0.8,1-1.8,2-3.1,3c-1.3,1-2.8,1.9-4.5,2.6l0,0l-0.2-0.3
					c0.8-0.7,1.6-1.4,2.3-2.1s1.3-1.4,1.8-2.1c0.5-0.7,1-1.4,1.3-2.2c0.4-0.8,0.7-1.5,1-2.2c0.3-0.7,0.5-1.4,0.6-2.3
					c0.2-0.9,0.3-1.6,0.4-2.3c0.1-0.7,0.2-1.4,0.2-2.4s0.1-1.7,0.1-2.3s0-1.4,0-2.4l0,0C108.3,27.8,108.3,27.5,108.3,27.3z
					 M135.9,43.2h2.9v-2.1h-2.9V43.2z M138.8,38.4h-2.9v2.1h2.9V38.4z M139,35.7h-3.1v2.1h2.7l1.3-1.3H139V35.7z M129.6,32.8v2.3
					h2.9v-2.3H129.6z M139,35.1v-2.3h-3.1v2.3H139z M142,38.9v1.5l1.2-1.7c1,0.9,1.8,1.6,2.4,2.2l0,0c0,0.2-0.3,0.4-0.6,0.4l0,0h-3
					v3.3c0,0.1-0.2,0.2-0.4,0.3c-0.3,0.1-0.6,0.3-1.1,0.4c-0.4,0.1-0.8,0.2-1.1,0.2l0,0h-0.5v-1.5h-2.9v1.5c0,0.6,0,1.1-0.1,1.4
					c-0.1,0.4-0.3,0.7-0.6,1c-0.3,0.3-0.7,0.6-1.3,0.7c-0.6,0.2-1.3,0.3-2.2,0.4l0,0c-0.1-1-0.3-1.7-0.7-2.1l0,0
					c-0.5-0.5-1.3-0.8-2.3-1l0,0v-0.3c1.9,0.1,3,0.2,3.4,0.2l0,0c0.3,0,0.5-0.1,0.5-0.4l0,0v-1.4h-6.6l-0.2-0.7h6.8v-2.1h-8.8
					l-0.2-0.6h9v-2.1h-6.4l-0.2-0.6h6.6v-2.1h-2.9v0.4c0,0.1-0.1,0.2-0.4,0.4c-0.3,0.1-0.7,0.3-1.1,0.4c-0.5,0.1-0.9,0.2-1.3,0.2
					l0,0h-0.5v-6.3l3.5,1.3h2.7v-1.8h-8.8l-0.2-0.6h8.9V27l4.2,0.4c0,0.4-0.3,0.6-0.8,0.7l0,0v1.6h4.1l1.7-2.1
					c1.3,0.9,2.4,1.7,3.2,2.4l0,0c-0.1,0.2-0.3,0.4-0.7,0.4l0,0h-8.4v1.8h2.9l1.4-1.5l3,2.2c-0.2,0.2-0.4,0.3-0.8,0.4l0,0v2.5
					c0,0.1-0.3,0.2-0.7,0.4c-0.5,0.2-1,0.3-1.4,0.4l0,0l2.7,2C142.6,38.6,142.3,38.8,142,38.9L142,38.9z"/>
			</g>
		</g>
	</g>
	<g transform="translate(4.434173583984375,42.660003662109375)">
		<g transform="scale(1, 1)">
			<g transform="scale(1)">
				<path class="st4" d="M56.5,10.7L56.5,10.7h-0.6c0-0.6-0.5-1-1.3-1l0,0c-0.8,0-1.1,0.3-1.1,0.9l0,0c0,0.4,0.2,0.6,0.6,0.6l0,0
					l1.4,0.3c0.8,0.2,1.1,0.6,1.1,1.4l0,0c0,0.9-0.7,1.4-2,1.5l0,0c-0.7,0-1.2-0.1-1.5-0.4l0,0c-0.4-0.3-0.5-0.7-0.5-1.3l0,0h0.7
					c0,0.8,0.5,1.2,1.4,1.2l0,0c0.9,0,1.3-0.3,1.4-0.9l0,0c0.1-0.5-0.3-0.8-1.1-0.9l0,0l-1-0.2c-0.7-0.2-1.1-0.6-1.1-1.2l0,0
					c0.1-1,0.6-1.5,1.8-1.5l0,0C55.8,9.1,56.5,9.6,56.5,10.7z M61.5,11.8L61.5,11.8c-0.1-1.3-0.7-2-1.8-2.1l0,0
					c-1.1,0.1-1.7,0.8-1.8,2.1l0,0c0.1,1.3,0.6,2,1.8,2l0,0C60.8,13.7,61.4,13.1,61.5,11.8z M62.2,11.8L62.2,11.8
					c-0.1,1.7-0.9,2.5-2.5,2.6l0,0c-1.5-0.1-2.4-0.9-2.5-2.6l0,0c0.1-1.7,0.9-2.6,2.5-2.7l0,0C61.2,9.1,62.1,10,62.2,11.8z
					 M63.8,9.2l2.5,4.1V9.2H67v5h-0.8l-2.6-4.1h0v4.1H63v-5H63.8z M71.8,12.2h-1.5v-0.6h2.2v2.7H72l-0.2-0.6
					c-0.4,0.5-0.9,0.7-1.7,0.7l0,0c-0.7,0-1.2-0.2-1.6-0.5l0,0c-0.5-0.5-0.8-1.2-0.8-2.1l0,0c0.1-1.7,0.9-2.5,2.4-2.6l0,0
					c1.3,0.1,2,0.6,2.2,1.7l0,0h-0.7c-0.2-0.7-0.7-1.1-1.5-1.1l0,0c-1.1,0.1-1.6,0.8-1.7,2.1l0,0c0,1.4,0.6,2.1,1.7,2.1l0,0
					c0.4,0,0.8-0.1,1-0.3l0,0C71.7,13.2,71.8,12.8,71.8,12.2L71.8,12.2z M74.8,9.8h-1.7V9.2h4.1v0.6h-1.7v4.5h-0.7V9.8z M81.8,11.8
					L81.8,11.8c-0.1-1.3-0.7-2-1.8-2.1l0,0c-1.1,0.1-1.7,0.8-1.8,2.1l0,0c0.1,1.3,0.6,2,1.8,2l0,0C81.1,13.7,81.7,13.1,81.8,11.8z
					 M82.5,11.8L82.5,11.8c-0.1,1.7-0.9,2.5-2.5,2.6l0,0c-1.5-0.1-2.4-0.9-2.5-2.6l0,0c0.1-1.7,0.9-2.6,2.5-2.7l0,0
					C81.6,9.1,82.4,10,82.5,11.8z M84.1,9.2l2.5,4.1V9.2h0.7v5h-0.8L84,10.2h0v4.1h-0.7v-5H84.1z M92.1,12.2h-1.5v-0.6h2.2v2.7h-0.4
					l-0.2-0.6c-0.4,0.5-0.9,0.7-1.7,0.7l0,0c-0.7,0-1.2-0.2-1.6-0.5l0,0c-0.6-0.5-0.8-1.2-0.8-2.1l0,0c0.1-1.7,0.9-2.5,2.4-2.6l0,0
					c1.3,0.1,2,0.6,2.2,1.7l0,0h-0.7c-0.2-0.7-0.7-1.1-1.5-1.1l0,0c-1,0.1-1.6,0.8-1.7,2.1l0,0c0,1.4,0.6,2.1,1.7,2.1l0,0
					c0.4,0,0.8-0.1,1-0.3l0,0C92,13.2,92.2,12.8,92.1,12.2L92.1,12.2z M98,9.8h-1.4v1.8h1.4c0.7,0,1-0.3,1-0.9l0,0
					C99,10.1,98.6,9.8,98,9.8L98,9.8z M98.2,12.2h-1.6v2.1h-0.7v-5h2.3c1,0,1.4,0.5,1.5,1.4l0,0C99.6,11.6,99.1,12.1,98.2,12.2
					L98.2,12.2z M101.3,13.7h3v0.6h-3.7v-5h3.7v0.6h-3v1.6h2.8V12h-2.8V13.7z M107.6,12.1H106v2.2h-0.7v-5h2.3
					c1.1,0,1.7,0.5,1.7,1.4l0,0c0,0.5-0.2,1-0.7,1.2l0,0c0.4,0.1,0.6,0.4,0.6,1l0,0l0.1,0.9c0,0.3,0.1,0.4,0.3,0.5l0,0v0.1h-0.9
					c-0.1-0.2-0.1-0.7-0.1-1.3l0,0C108.5,12.4,108.2,12.1,107.6,12.1L107.6,12.1z M107.7,9.8H106v1.7h1.6c0.7,0,1-0.3,1-0.9l0,0
					C108.6,10.1,108.3,9.8,107.7,9.8L107.7,9.8z M114,10.7L114,10.7h-0.6c0-0.6-0.5-1-1.3-1l0,0c-0.8,0-1.1,0.3-1.1,0.9l0,0
					c0,0.4,0.2,0.6,0.6,0.6l0,0l1.4,0.3c0.8,0.2,1.1,0.6,1.1,1.4l0,0c0,0.9-0.7,1.4-2,1.5l0,0c-0.7,0-1.2-0.1-1.5-0.4l0,0
					c-0.4-0.3-0.5-0.7-0.5-1.3l0,0h0.7c0,0.8,0.5,1.2,1.4,1.2l0,0c0.9,0,1.3-0.3,1.4-0.9l0,0c0.1-0.5-0.3-0.8-1.1-0.9l0,0l-1-0.2
					c-0.7-0.2-1.1-0.6-1.1-1.2l0,0c0.1-1,0.6-1.5,1.8-1.5l0,0C113.3,9.1,113.9,9.6,114,10.7z M118.9,11.8L118.9,11.8
					c-0.1-1.3-0.7-2-1.8-2.1l0,0c-1.1,0.1-1.7,0.8-1.8,2.1l0,0c0.1,1.3,0.6,2,1.8,2l0,0C118.3,13.7,118.9,13.1,118.9,11.8z
					 M119.6,11.8L119.6,11.8c-0.1,1.7-0.9,2.5-2.5,2.6l0,0c-1.5-0.1-2.4-0.9-2.5-2.6l0,0c0.1-1.7,0.9-2.6,2.5-2.7l0,0
					C118.7,9.1,119.5,10,119.6,11.8z M121.3,9.2l2.5,4.1V9.2h0.7v5h-0.8l-2.6-4.1h0v4.1h-0.7v-5H121.3z M126.3,9.2l2.5,4.1V9.2h0.7
					v5h-0.8l-2.6-4.1h0v4.1h-0.7v-5H126.3z M131.4,13.7h3v0.6h-3.7v-5h3.7v0.6h-3v1.6h2.8V12h-2.8V13.7z M135.3,9.2h0.7v4.4h2.6v0.6
					h-3.3V9.2z"/>
			</g>
		</g>
	</g>
</g>
</svg>
